<svg xmlns="http://www.w3.org/2000/svg" viewBox="0 0 64 64">
  <defs>
    <radialGradient id="g" cx="35%" cy="30%" r="70%">
      <stop offset="0%" stop-color="#ffe0eb"/>
      <stop offset="55%" stop-color="#ffb3cd"/>
      <stop offset="100%" stop-color="#e85f95"/>
    </radialGradient>
  </defs>
  <circle cx="32" cy="32" r="30" fill="url(#g)"/>
  <g fill="#fff" opacity="0.92">
    <path d="M32 14c2.2 3 2.2 6.6 0 9.6-2.2-3-2.2-6.6 0-9.6Z"/>
    <path d="M48.6 26c-1.1 3.5-4.1 5.6-7.7 5.9 1.1-3.5 4.1-5.6 7.7-5.9Z"/>
    <path d="M44.2 45.6c-3.3-1.5-5-4.7-5-8.3 3.3 1.5 5 4.7 5 8.3Z"/>
    <path d="M19.8 45.6c0-3.6 1.7-6.8 5-8.3 0 3.6-1.7 6.8-5 8.3Z"/>
    <path d="M15.4 26c3.6.3 6.6 2.4 7.7 5.9-3.6-.3-6.6-2.4-7.7-5.9Z"/>
    <circle cx="32" cy="32" r="3.4" fill="#ffd56b"/>
  </g>
</svg>
